<svg width="14" height="12" viewBox="0 0 14 12" xmlns="http://www.w3.org/2000/svg">
  <path d="M0.336368 10.4816C0.603009 10.9852 1.19172 11.2264 1.73132 11.0628L1.85077 11.3311C1.94411 11.5407 2.18966 11.6349 2.39926 11.5416C2.60886 11.4482 2.7031 11.2027 2.60976 10.9931L2.49422 10.7336L3.23243 10.4049L3.34798 10.6643C3.4413 10.8739 3.68687 10.9682 3.89647 10.8749C4.10605 10.7815 4.20031 10.5359 4.10697 10.3264L3.99142 10.0669L5.71669 9.29861L5.83224 9.55807C5.92557 9.76767 6.17114 9.86191 6.38073 9.76859C6.59032 9.67525 6.68457 9.42968 6.59124 9.22009L6.47569 8.96062L9.74832 7.50329L9.86387 7.76275C9.9572 7.97235 10.2028 8.06659 10.4124 7.97327C10.6219 7.87993 10.7162 7.63436 10.6229 7.42477L10.5073 7.1653L11.7516 6.61122L11.8671 6.87069C11.9605 7.08029 12.206 7.17453 12.4156 7.08119C12.6252 6.98786 12.7194 6.7423 12.6261 6.5327L12.5106 6.27323L12.5755 6.24432C13.1655 5.98158 13.4571 5.32213 13.2773 4.71894L0.336368 10.4817V10.4816ZM9.90332 0.105168L9.51895 0.276363C9.3583 0.347904 9.26015 0.512824 9.27378 0.688133C9.32174 1.30355 8.98002 1.86715 8.40325 2.124C7.93458 2.3327 7.40734 2.29102 6.99287 2.01249C6.65026 1.78227 6.21677 1.74678 5.83329 1.91758C5.69993 1.97697 5.57961 2.05902 5.47569 2.16142L4.67503 2.95025L9.43778 5.51915L12.9494 3.95542L11.5093 0.721461C11.2364 0.108795 10.516 -0.167675 9.90331 0.105165L9.90332 0.105168ZM4.05589 3.56033L3.58444 4.02482L7.74914 6.27113L8.47905 5.94609L4.05589 3.56033ZM2.96526 4.63489L1.13551 6.43764C0.215941 7.27258 -0.171364 8.5112 0.0703781 9.69055L6.79041 6.69807L2.96526 4.63489V4.63489Z"/>
</svg>
