<?xml version="1.0" encoding="UTF-8"?>
<svg xmlns="http://www.w3.org/2000/svg" xmlns:xlink="http://www.w3.org/1999/xlink" width="14px" height="14px" viewBox="0 0 14 14" version="1.1">
<g id="surface1">
<path style=" stroke:none;" d="M 4.609375 12.523438 C 3.5 11.554688 3.121094 10.015625 3.605469 8.65625 L 4.847656 5.199219 C 4.976562 4.839844 5.460938 4.796875 5.652344 5.121094 L 5.832031 5.441406 C 5.972656 5.671875 6.003906 5.949219 5.914062 6.199219 L 5.34375 7.800781 L 5.59375 8.019531 L 9.070312 4.082031 C 9.273438 3.851562 9.625 3.828125 9.863281 4.03125 C 10.089844 4.234375 10.113281 4.589844 9.917969 4.816406 L 7.320312 7.753906 L 7.660156 8.050781 L 10.839844 4.445312 C 11.042969 4.210938 11.398438 4.1875 11.625 4.390625 C 11.859375 4.597656 11.882812 4.957031 11.667969 5.1875 L 8.492188 8.789062 L 8.832031 9.089844 L 11.566406 5.984375 C 11.773438 5.75 12.128906 5.726562 12.355469 5.933594 C 12.582031 6.136719 12.613281 6.492188 12.40625 6.707031 L 9.671875 9.824219 L 10.003906 10.121094 L 11.851562 8.027344 C 12.058594 7.792969 12.414062 7.769531 12.648438 7.972656 C 12.878906 8.179688 12.898438 8.535156 12.691406 8.75 L 9.660156 12.203125 C 8.351562 13.691406 6.089844 13.832031 4.609375 12.523438 M 6.761719 5.378906 L 8.417969 3.5 C 8.558594 3.34375 8.734375 3.207031 8.925781 3.132812 L 9.148438 2.675781 C 9.285156 2.402344 9.171875 2.066406 8.890625 1.929688 C 8.617188 1.796875 8.277344 1.914062 8.144531 2.1875 L 6.679688 5.1875 C 6.707031 5.25 6.742188 5.3125 6.761719 5.378906 M 6.417969 4.667969 L 6.417969 4.695312 L 8.039062 1.386719 C 8.167969 1.109375 8.054688 0.777344 7.777344 0.640625 C 7.5 0.503906 7.164062 0.617188 7.027344 0.898438 L 5.488281 4.054688 C 5.867188 4.117188 6.199219 4.335938 6.417969 4.667969 M 2.78125 8.359375 L 4.023438 4.898438 C 4.183594 4.460938 4.550781 4.164062 4.988281 4.066406 L 6.234375 1.503906 C 6.371094 1.226562 6.253906 0.890625 5.980469 0.757812 C 5.699219 0.625 5.367188 0.734375 5.234375 1.015625 L 2.917969 5.738281 L 2.625 5.59375 L 2.746094 3.898438 C 2.769531 3.632812 2.664062 3.371094 2.480469 3.183594 L 2.210938 2.917969 C 1.9375 2.664062 1.488281 2.835938 1.457031 3.207031 L 1.167969 6.878906 C 1.089844 8.066406 1.617188 9.203125 2.539062 9.917969 C 2.527344 9.402344 2.601562 8.871094 2.78125 8.359375 Z M 2.78125 8.359375 "/>
</g>
</svg>
