<svg width="14" height="14" viewBox="0 0 14 14" xmlns="http://www.w3.org/2000/svg">
  <path d="M7.00004 0.333336C6.12456 0.333336 5.25766 0.505774 4.44882 0.840806C3.63998 1.17584 2.90505 1.6669 2.286 2.28596C1.03575 3.5362 0.333374 5.23189 0.333374 7C0.333374 8.76811 1.03575 10.4638 2.286 11.714C2.90505 12.3331 3.63998 12.8242 4.44882 13.1592C5.25766 13.4942 6.12456 13.6667 7.00004 13.6667C8.76815 13.6667 10.4638 12.9643 11.7141 11.714C12.9643 10.4638 13.6667 8.76811 13.6667 7C13.6667 6.12452 13.4943 5.25762 13.1592 4.44878C12.8242 3.63994 12.3331 2.90501 11.7141 2.28596C11.095 1.6669 10.3601 1.17584 9.55126 0.840806C8.74243 0.505774 7.87552 0.333336 7.00004 0.333336ZM7.00004 1C8.17337 1 9.26671 1.35334 10.1867 1.94L10 2.33334H7.66671H7.00004L5.85337 1.77334L6.08671 1.08667C6.38671 1.03334 6.68671 1 7.00004 1ZM5.35337 1.25334L5.12671 1.94L3.42004 2.79334L2.58671 2.96C3.33337 2.15334 4.28004 1.56 5.35337 1.25334ZM7.66671 3H9.66671L11.46 5.39334L10.6267 7.10667L8.87337 7.52L6.68671 4.96L7.66671 3ZM3.10671 3.44L3.66671 5.66667L2.85337 7.70667L1.14671 8.29334C1.05337 7.87334 1.00004 7.44667 1.00004 7C1.00004 5.73334 1.39337 4.57334 2.06004 3.60667L3.10671 3.44ZM12.7067 5.14667C12.9 5.72667 13 6.35334 13 7C13 7.96 12.7534 8.86 12.3534 9.66667H11.6667L11.1067 7.44L12.1067 5.44L12.7067 5.14667ZM4.33337 5.66667H6.33337L8.20671 7.85334L7.00004 9.66667L4.89337 10.1867L3.35337 8.12667L4.33337 5.66667ZM7.00004 10.3333L9.00004 11.6667L8.42004 12.8133C7.96004 12.92 7.48671 13 7.00004 13C5.83337 13 4.75337 12.6667 3.83337 12.0867L4.60671 10.94L7.00004 10.3333ZM11.6667 10.3333H12C11.3334 11.3333 10.3334 12.1133 9.20671 12.56L9.66671 11.6667L11.6667 10.3333Z"/>
</svg>
