<svg width="30" height="30" viewBox="0 0 30 30" xmlns="http://www.w3.org/2000/svg">
  <path fill="#FFFFFF" d="M15.0001 2.07661C11.534 1.96333 8.50611 1.35452 6.1378 0C4.81287 1.4382 3.48824 2.87641 2.16331 4.31461C5.10278 6.75764 3.8726 10.3292 1.26757 13.9286C-1.33745 17.528 0.49288 22.6236 2.98553 24.7418C5.47847 26.8602 11.974 25.792 15.0001 29.0743C18.0263 25.792 24.5215 26.8599 27.0148 24.7418C29.5077 22.6236 31.3377 17.528 28.7327 13.9286C26.1277 10.3292 24.8975 6.75734 27.837 4.31461C26.512 2.87641 25.1874 1.4382 23.8625 0C21.4942 1.35452 18.4662 1.96363 15.0001 2.07661Z"/>
</svg>
